<svg width="70" height="90" viewBox="0 0 70 90" fill="none" xmlns="http://www.w3.org/2000/svg">
<path d="M15.0166 19.9805C15.7929 19.9805 16.4228 20.6104 16.4228 21.3867C16.4228 22.1631 15.7929 22.793 15.0166 22.793H12.7929V78.1055H57.207V22.793H54.9805C54.2041 22.793 53.5742 22.1631 53.5742 21.3867C53.5742 20.6104 54.2041 19.9805 54.9805 19.9805H58.5781H58.6133C59.3897 19.9805 60.0195 20.6104 60.0195 21.3867V79.4764V79.5145C60.0195 80.2908 59.3897 80.9208 58.6133 80.9208H11.4218H11.3866C10.6102 80.9208 9.98033 80.2908 9.98033 79.5145V21.4219V21.3867C9.98033 20.6104 10.6102 19.9805 11.3866 19.9805H15.0166Z" fill="#E05100"/>
<path d="M27.7343 5.45513C28.5077 5.45513 29.1347 6.08206 29.1347 6.85547C29.1347 7.62888 28.5077 8.25581 27.7343 8.25581H23.6914V19.9805H46.3085V8.25581L42.2656 8.25297C41.4919 8.25297 40.8652 7.62592 40.8652 6.85251C40.8652 6.07911 41.4922 5.45217 42.2656 5.45217L47.571 5.45513L47.7148 5.44922C48.4911 5.44922 49.121 6.07911 49.121 6.85547V21.3515V21.3867C49.121 22.1631 48.4911 22.793 47.7148 22.793H22.3203H22.2851C21.5087 22.793 20.8789 22.1631 20.8789 21.3867V6.85547H20.8848C20.8848 6.08206 21.5117 5.45513 22.2851 5.45513H27.7343Z" fill="#E05100"/>
<path d="M33.1806 35.5078C32.4042 35.5078 31.7743 34.8779 31.7743 34.1016C31.7743 33.3252 32.4042 32.6953 33.1806 32.6953H51.3476C52.124 32.6953 52.7538 33.3252 52.7538 34.1016C52.7538 34.8779 52.124 35.5078 51.3476 35.5078H33.1806ZM33.1806 68.2032C32.4042 68.2032 31.7743 67.5733 31.7743 66.7969C31.7743 66.0207 32.4042 65.3907 33.1806 65.3907H51.3476C52.124 65.3907 52.7538 66.0207 52.7538 66.7969C52.7538 67.5733 52.124 68.2032 51.3476 68.2032H33.1806ZM33.1806 57.3046C32.4042 57.3046 31.7743 56.6747 31.7743 55.8984C31.7743 55.122 32.4042 54.4921 33.1806 54.4921H51.3476C52.124 54.4921 52.7538 55.122 52.7538 55.8984C52.7538 56.6747 52.124 57.3046 51.3476 57.3046H33.1806ZM33.1806 46.4062C32.4042 46.4062 31.7743 45.7763 31.7743 45C31.7743 44.2236 32.4042 43.5937 33.1806 43.5937H51.3476C52.124 43.5937 52.7538 44.2266 52.7538 45C52.7538 45.7763 52.124 46.4062 51.3476 46.4062H33.1806Z" fill="#E05100"/>
<path d="M19.121 34.0344C18.6582 33.4162 18.7841 32.5373 19.4023 32.0716C20.0204 31.6086 20.8993 31.7346 21.3623 32.3528L22.2851 33.5833L25.25 29.6281C25.7128 29.0101 26.5946 28.8841 27.2128 29.3469C27.8309 29.8097 27.9569 30.6916 27.4941 31.3069L23.4218 36.7355L23.4071 36.7561C23.3281 36.8616 23.2373 36.9553 23.1259 37.0374C22.5077 37.5002 21.6288 37.3743 21.1659 36.7561L19.121 34.0344Z" fill="#E05100"/>
<path d="M19.121 44.9328C18.6582 44.3147 18.7841 43.4358 19.4023 42.97C20.0204 42.507 20.8993 42.6331 21.3623 43.2512L22.2851 44.4817L25.25 40.5266C25.7128 39.9085 26.5946 39.7825 27.2128 40.2453C27.8309 40.7082 27.9569 41.59 27.4941 42.2082L23.4218 47.6368L23.4071 47.6574C23.3281 47.7628 23.2373 47.8566 23.1259 47.9387C22.5077 48.4015 21.6288 48.2757 21.1659 47.6574L19.121 44.9328Z" fill="#E05100"/>
<path d="M19.121 55.8307C18.6582 55.2126 18.7841 54.3335 19.4023 53.868C20.0204 53.4051 20.8993 53.531 21.3623 54.1492L22.2851 55.3797L25.25 51.4246C25.7128 50.8065 26.5946 50.6805 27.2128 51.1432C27.8309 51.606 27.9569 52.488 27.4941 53.106L23.4218 58.5347L23.4071 58.5553C23.3281 58.6607 23.2373 58.7545 23.1259 58.8365C22.5077 59.2993 21.6288 59.1734 21.1659 58.5553L19.121 55.8307Z" fill="#E05100"/>
<path d="M19.121 66.7297C18.6582 66.1116 18.7841 65.2325 19.4023 64.7669C20.0204 64.3041 20.8993 64.43 21.3623 65.0482L22.2851 66.2786L25.25 62.3235C25.7128 61.7055 26.5946 61.5793 27.2128 62.0422C27.8309 62.505 27.9569 63.3868 27.4941 64.005L23.4218 69.4335L23.4071 69.4542C23.3281 69.5597 23.2373 69.6534 23.1259 69.7355C22.5077 70.1983 21.6288 70.0724 21.1659 69.4542L19.121 66.7297Z" fill="#E05100"/>
<path d="M15.0195 10.8984C15.7959 10.8984 16.4258 11.5283 16.4258 12.3047C16.4258 13.0811 15.7959 13.7109 15.0195 13.7109H5.93749C5.33101 13.7109 4.77147 13.9629 4.36715 14.3672C3.96283 14.7715 3.7109 15.3311 3.7109 15.9375V84.9609C3.7109 85.5733 3.95988 86.1328 4.36135 86.5311L4.36715 86.5371C4.76556 86.9383 5.32522 87.1875 5.93749 87.1875H64.0625C64.6777 87.1875 65.2344 86.9385 65.6327 86.5371L65.6386 86.5311C66.04 86.1326 66.2891 85.5731 66.2891 84.9609V15.9375C66.2891 15.3253 66.0402 14.7656 65.6386 14.3672L65.6359 14.3642L65.6329 14.3672C65.2286 13.9629 64.672 13.7109 64.0627 13.7109H54.9807C54.2043 13.7109 53.5744 13.0811 53.5744 12.3047C53.5744 11.5283 54.2043 10.8984 54.9807 10.8984H64.0627C65.4484 10.8984 66.7113 11.4667 67.6223 12.378L67.6194 12.3809C68.5334 13.2949 69.1018 14.5576 69.1018 15.9375V84.9609C69.1018 86.3408 68.5363 87.6006 67.6223 88.5145L67.6163 88.5205C66.7023 89.4346 65.4425 90 64.0627 90H5.93772C4.55783 90 3.29806 89.4346 2.38408 88.5205L2.37817 88.5145C1.46397 87.6005 0.898514 86.3407 0.898514 84.9609V15.9375C0.898514 14.5518 1.46681 13.2891 2.37806 12.378C3.28931 11.4668 4.55192 10.8984 5.9376 10.8984H15.0195Z" fill="#E05100"/>
<path d="M35 0C36.134 0 37.1679 0.465795 37.915 1.20989L37.9209 1.2158C38.665 1.96284 39.1308 2.99409 39.1308 4.1308C39.1308 5.26466 38.6648 6.29875 37.9209 7.04579L37.9181 7.04875L37.9209 7.0517C37.1767 7.79875 36.1427 8.26159 35 8.26159C33.8574 8.26159 32.8233 7.79579 32.0791 7.0517C31.332 6.3075 30.8692 5.27045 30.8692 4.1308C30.8692 2.99409 31.335 1.96284 32.082 1.21284L32.0791 1.20989C32.8261 0.465795 33.8603 0 35 0ZM35.9375 3.1992L35.9316 3.1933C35.6943 2.95886 35.3661 2.81239 35 2.81239C34.6367 2.81239 34.3057 2.96182 34.0684 3.19909L34.0654 3.19614L34.0625 3.19909C33.831 3.43057 33.6816 3.76455 33.6816 4.12773C33.6816 4.49091 33.831 4.82205 34.0683 5.05943C34.3056 5.2967 34.6366 5.44614 34.9999 5.44614C35.3632 5.44614 35.6942 5.2967 35.9315 5.05943L35.9344 5.06227C36.1687 4.825 36.3153 4.49398 36.3153 4.12773C36.3183 3.76761 36.1718 3.43648 35.9375 3.1992Z" fill="#E05100"/>
</svg>
